0 LEGO Cube generated by Python
0 Size: 4 x 4 x 4
0 !LDRAW_ORG Model
1 4 0 0 0 1 0 0 0 1 0 0 0 1 3003.dat
1 4 40 0 0 1 0 0 0 1 0 0 0 1 3003.dat
1 4 0 0 40 1 0 0 0 1 0 0 0 1 3003.dat
1 4 40 0 40 1 0 0 0 1 0 0 0 1 3003.dat
1 4 0 24 0 1 0 0 0 1 0 0 0 1 3003.dat
1 4 40 24 0 1 0 0 0 1 0 0 0 1 3003.dat
1 4 0 24 40 1 0 0 0 1 0 0 0 1 3003.dat
1 4 40 24 40 1 0 0 0 1 0 0 0 1 3003.dat
1 4 0 48 0 1 0 0 0 1 0 0 0 1 3003.dat
1 4 40 48 0 1 0 0 0 1 0 0 0 1 3003.dat
1 4 0 48 40 1 0 0 0 1 0 0 0 1 3003.dat
1 4 40 48 40 1 0 0 0 1 0 0 0 1 3003.dat
1 4 0 72 0 1 0 0 0 1 0 0 0 1 3003.dat
1 4 40 72 0 1 0 0 0 1 0 0 0 1 3003.dat
1 4 0 72 40 1 0 0 0 1 0 0 0 1 3003.dat
1 4 40 72 40 1 0 0 0 1 0 0 0 1 3003.dat
0 NOFILE
