0 LEGO Cube generated by Python
0 Size: 10 x 10 x 10
0 !LDRAW_ORG Model
1 4 0 0 0 1 0 0 0 1 0 0 0 1 3003.dat
1 4 40 0 0 1 0 0 0 1 0 0 0 1 3003.dat
1 4 80 0 0 1 0 0 0 1 0 0 0 1 3003.dat
1 4 120 0 0 1 0 0 0 1 0 0 0 1 3003.dat
1 4 160 0 0 1 0 0 0 1 0 0 0 1 3003.dat
1 4 0 0 40 1 0 0 0 1 0 0 0 1 3003.dat
1 4 40 0 40 1 0 0 0 1 0 0 0 1 3003.dat
1 4 80 0 40 1 0 0 0 1 0 0 0 1 3003.dat
1 4 120 0 40 1 0 0 0 1 0 0 0 1 3003.dat
1 4 160 0 40 1 0 0 0 1 0 0 0 1 3003.dat
1 4 0 0 80 1 0 0 0 1 0 0 0 1 3003.dat
1 4 40 0 80 1 0 0 0 1 0 0 0 1 3003.dat
1 4 80 0 80 1 0 0 0 1 0 0 0 1 3003.dat
1 4 120 0 80 1 0 0 0 1 0 0 0 1 3003.dat
1 4 160 0 80 1 0 0 0 1 0 0 0 1 3003.dat
1 4 0 0 120 1 0 0 0 1 0 0 0 1 3003.dat
1 4 40 0 120 1 0 0 0 1 0 0 0 1 3003.dat
1 4 80 0 120 1 0 0 0 1 0 0 0 1 3003.dat
1 4 120 0 120 1 0 0 0 1 0 0 0 1 3003.dat
1 4 160 0 120 1 0 0 0 1 0 0 0 1 3003.dat
1 4 0 0 160 1 0 0 0 1 0 0 0 1 3003.dat
1 4 40 0 160 1 0 0 0 1 0 0 0 1 3003.dat
1 4 80 0 160 1 0 0 0 1 0 0 0 1 3003.dat
1 4 120 0 160 1 0 0 0 1 0 0 0 1 3003.dat
1 4 160 0 160 1 0 0 0 1 0 0 0 1 3003.dat
1 4 0 24 0 1 0 0 0 1 0 0 0 1 3003.dat
1 4 40 24 0 1 0 0 0 1 0 0 0 1 3003.dat
1 4 80 24 0 1 0 0 0 1 0 0 0 1 3003.dat
1 4 120 24 0 1 0 0 0 1 0 0 0 1 3003.dat
1 4 160 24 0 1 0 0 0 1 0 0 0 1 3003.dat
1 4 0 24 40 1 0 0 0 1 0 0 0 1 3003.dat
1 4 40 24 40 1 0 0 0 1 0 0 0 1 3003.dat
1 4 80 24 40 1 0 0 0 1 0 0 0 1 3003.dat
1 4 120 24 40 1 0 0 0 1 0 0 0 1 3003.dat
1 4 160 24 40 1 0 0 0 1 0 0 0 1 3003.dat
1 4 0 24 80 1 0 0 0 1 0 0 0 1 3003.dat
1 4 40 24 80 1 0 0 0 1 0 0 0 1 3003.dat
1 4 80 24 80 1 0 0 0 1 0 0 0 1 3003.dat
1 4 120 24 80 1 0 0 0 1 0 0 0 1 3003.dat
1 4 160 24 80 1 0 0 0 1 0 0 0 1 3003.dat
1 4 0 24 120 1 0 0 0 1 0 0 0 1 3003.dat
1 4 40 24 120 1 0 0 0 1 0 0 0 1 3003.dat
1 4 80 24 120 1 0 0 0 1 0 0 0 1 3003.dat
1 4 120 24 120 1 0 0 0 1 0 0 0 1 3003.dat
1 4 160 24 120 1 0 0 0 1 0 0 0 1 3003.dat
1 4 0 24 160 1 0 0 0 1 0 0 0 1 3003.dat
1 4 40 24 160 1 0 0 0 1 0 0 0 1 3003.dat
1 4 80 24 160 1 0 0 0 1 0 0 0 1 3003.dat
1 4 120 24 160 1 0 0 0 1 0 0 0 1 3003.dat
1 4 160 24 160 1 0 0 0 1 0 0 0 1 3003.dat
1 4 0 48 0 1 0 0 0 1 0 0 0 1 3003.dat
1 4 40 48 0 1 0 0 0 1 0 0 0 1 3003.dat
1 4 80 48 0 1 0 0 0 1 0 0 0 1 3003.dat
1 4 120 48 0 1 0 0 0 1 0 0 0 1 3003.dat
1 4 160 48 0 1 0 0 0 1 0 0 0 1 3003.dat
1 4 0 48 40 1 0 0 0 1 0 0 0 1 3003.dat
1 4 40 48 40 1 0 0 0 1 0 0 0 1 3003.dat
1 4 80 48 40 1 0 0 0 1 0 0 0 1 3003.dat
1 4 120 48 40 1 0 0 0 1 0 0 0 1 3003.dat
1 4 160 48 40 1 0 0 0 1 0 0 0 1 3003.dat
1 4 0 48 80 1 0 0 0 1 0 0 0 1 3003.dat
1 4 40 48 80 1 0 0 0 1 0 0 0 1 3003.dat
1 4 80 48 80 1 0 0 0 1 0 0 0 1 3003.dat
1 4 120 48 80 1 0 0 0 1 0 0 0 1 3003.dat
1 4 160 48 80 1 0 0 0 1 0 0 0 1 3003.dat
1 4 0 48 120 1 0 0 0 1 0 0 0 1 3003.dat
1 4 40 48 120 1 0 0 0 1 0 0 0 1 3003.dat
1 4 80 48 120 1 0 0 0 1 0 0 0 1 3003.dat
1 4 120 48 120 1 0 0 0 1 0 0 0 1 3003.dat
1 4 160 48 120 1 0 0 0 1 0 0 0 1 3003.dat
1 4 0 48 160 1 0 0 0 1 0 0 0 1 3003.dat
1 4 40 48 160 1 0 0 0 1 0 0 0 1 3003.dat
1 4 80 48 160 1 0 0 0 1 0 0 0 1 3003.dat
1 4 120 48 160 1 0 0 0 1 0 0 0 1 3003.dat
1 4 160 48 160 1 0 0 0 1 0 0 0 1 3003.dat
1 4 0 72 0 1 0 0 0 1 0 0 0 1 3003.dat
1 4 40 72 0 1 0 0 0 1 0 0 0 1 3003.dat
1 4 80 72 0 1 0 0 0 1 0 0 0 1 3003.dat
1 4 120 72 0 1 0 0 0 1 0 0 0 1 3003.dat
1 4 160 72 0 1 0 0 0 1 0 0 0 1 3003.dat
1 4 0 72 40 1 0 0 0 1 0 0 0 1 3003.dat
1 4 40 72 40 1 0 0 0 1 0 0 0 1 3003.dat
1 4 80 72 40 1 0 0 0 1 0 0 0 1 3003.dat
1 4 120 72 40 1 0 0 0 1 0 0 0 1 3003.dat
1 4 160 72 40 1 0 0 0 1 0 0 0 1 3003.dat
1 4 0 72 80 1 0 0 0 1 0 0 0 1 3003.dat
1 4 40 72 80 1 0 0 0 1 0 0 0 1 3003.dat
1 4 80 72 80 1 0 0 0 1 0 0 0 1 3003.dat
1 4 120 72 80 1 0 0 0 1 0 0 0 1 3003.dat
1 4 160 72 80 1 0 0 0 1 0 0 0 1 3003.dat
1 4 0 72 120 1 0 0 0 1 0 0 0 1 3003.dat
1 4 40 72 120 1 0 0 0 1 0 0 0 1 3003.dat
1 4 80 72 120 1 0 0 0 1 0 0 0 1 3003.dat
1 4 120 72 120 1 0 0 0 1 0 0 0 1 3003.dat
1 4 160 72 120 1 0 0 0 1 0 0 0 1 3003.dat
1 4 0 72 160 1 0 0 0 1 0 0 0 1 3003.dat
1 4 40 72 160 1 0 0 0 1 0 0 0 1 3003.dat
1 4 80 72 160 1 0 0 0 1 0 0 0 1 3003.dat
1 4 120 72 160 1 0 0 0 1 0 0 0 1 3003.dat
1 4 160 72 160 1 0 0 0 1 0 0 0 1 3003.dat
1 4 0 96 0 1 0 0 0 1 0 0 0 1 3003.dat
1 4 40 96 0 1 0 0 0 1 0 0 0 1 3003.dat
1 4 80 96 0 1 0 0 0 1 0 0 0 1 3003.dat
1 4 120 96 0 1 0 0 0 1 0 0 0 1 3003.dat
1 4 160 96 0 1 0 0 0 1 0 0 0 1 3003.dat
1 4 0 96 40 1 0 0 0 1 0 0 0 1 3003.dat
1 4 40 96 40 1 0 0 0 1 0 0 0 1 3003.dat
1 4 80 96 40 1 0 0 0 1 0 0 0 1 3003.dat
1 4 120 96 40 1 0 0 0 1 0 0 0 1 3003.dat
1 4 160 96 40 1 0 0 0 1 0 0 0 1 3003.dat
1 4 0 96 80 1 0 0 0 1 0 0 0 1 3003.dat
1 4 40 96 80 1 0 0 0 1 0 0 0 1 3003.dat
1 4 80 96 80 1 0 0 0 1 0 0 0 1 3003.dat
1 4 120 96 80 1 0 0 0 1 0 0 0 1 3003.dat
1 4 160 96 80 1 0 0 0 1 0 0 0 1 3003.dat
1 4 0 96 120 1 0 0 0 1 0 0 0 1 3003.dat
1 4 40 96 120 1 0 0 0 1 0 0 0 1 3003.dat
1 4 80 96 120 1 0 0 0 1 0 0 0 1 3003.dat
1 4 120 96 120 1 0 0 0 1 0 0 0 1 3003.dat
1 4 160 96 120 1 0 0 0 1 0 0 0 1 3003.dat
1 4 0 96 160 1 0 0 0 1 0 0 0 1 3003.dat
1 4 40 96 160 1 0 0 0 1 0 0 0 1 3003.dat
1 4 80 96 160 1 0 0 0 1 0 0 0 1 3003.dat
1 4 120 96 160 1 0 0 0 1 0 0 0 1 3003.dat
1 4 160 96 160 1 0 0 0 1 0 0 0 1 3003.dat
1 4 0 120 0 1 0 0 0 1 0 0 0 1 3003.dat
1 4 40 120 0 1 0 0 0 1 0 0 0 1 3003.dat
1 4 80 120 0 1 0 0 0 1 0 0 0 1 3003.dat
1 4 120 120 0 1 0 0 0 1 0 0 0 1 3003.dat
1 4 160 120 0 1 0 0 0 1 0 0 0 1 3003.dat
1 4 0 120 40 1 0 0 0 1 0 0 0 1 3003.dat
1 4 40 120 40 1 0 0 0 1 0 0 0 1 3003.dat
1 4 80 120 40 1 0 0 0 1 0 0 0 1 3003.dat
1 4 120 120 40 1 0 0 0 1 0 0 0 1 3003.dat
1 4 160 120 40 1 0 0 0 1 0 0 0 1 3003.dat
1 4 0 120 80 1 0 0 0 1 0 0 0 1 3003.dat
1 4 40 120 80 1 0 0 0 1 0 0 0 1 3003.dat
1 4 80 120 80 1 0 0 0 1 0 0 0 1 3003.dat
1 4 120 120 80 1 0 0 0 1 0 0 0 1 3003.dat
1 4 160 120 80 1 0 0 0 1 0 0 0 1 3003.dat
1 4 0 120 120 1 0 0 0 1 0 0 0 1 3003.dat
1 4 40 120 120 1 0 0 0 1 0 0 0 1 3003.dat
1 4 80 120 120 1 0 0 0 1 0 0 0 1 3003.dat
1 4 120 120 120 1 0 0 0 1 0 0 0 1 3003.dat
1 4 160 120 120 1 0 0 0 1 0 0 0 1 3003.dat
1 4 0 120 160 1 0 0 0 1 0 0 0 1 3003.dat
1 4 40 120 160 1 0 0 0 1 0 0 0 1 3003.dat
1 4 80 120 160 1 0 0 0 1 0 0 0 1 3003.dat
1 4 120 120 160 1 0 0 0 1 0 0 0 1 3003.dat
1 4 160 120 160 1 0 0 0 1 0 0 0 1 3003.dat
1 4 0 144 0 1 0 0 0 1 0 0 0 1 3003.dat
1 4 40 144 0 1 0 0 0 1 0 0 0 1 3003.dat
1 4 80 144 0 1 0 0 0 1 0 0 0 1 3003.dat
1 4 120 144 0 1 0 0 0 1 0 0 0 1 3003.dat
1 4 160 144 0 1 0 0 0 1 0 0 0 1 3003.dat
1 4 0 144 40 1 0 0 0 1 0 0 0 1 3003.dat
1 4 40 144 40 1 0 0 0 1 0 0 0 1 3003.dat
1 4 80 144 40 1 0 0 0 1 0 0 0 1 3003.dat
1 4 120 144 40 1 0 0 0 1 0 0 0 1 3003.dat
1 4 160 144 40 1 0 0 0 1 0 0 0 1 3003.dat
1 4 0 144 80 1 0 0 0 1 0 0 0 1 3003.dat
1 4 40 144 80 1 0 0 0 1 0 0 0 1 3003.dat
1 4 80 144 80 1 0 0 0 1 0 0 0 1 3003.dat
1 4 120 144 80 1 0 0 0 1 0 0 0 1 3003.dat
1 4 160 144 80 1 0 0 0 1 0 0 0 1 3003.dat
1 4 0 144 120 1 0 0 0 1 0 0 0 1 3003.dat
1 4 40 144 120 1 0 0 0 1 0 0 0 1 3003.dat
1 4 80 144 120 1 0 0 0 1 0 0 0 1 3003.dat
1 4 120 144 120 1 0 0 0 1 0 0 0 1 3003.dat
1 4 160 144 120 1 0 0 0 1 0 0 0 1 3003.dat
1 4 0 144 160 1 0 0 0 1 0 0 0 1 3003.dat
1 4 40 144 160 1 0 0 0 1 0 0 0 1 3003.dat
1 4 80 144 160 1 0 0 0 1 0 0 0 1 3003.dat
1 4 120 144 160 1 0 0 0 1 0 0 0 1 3003.dat
1 4 160 144 160 1 0 0 0 1 0 0 0 1 3003.dat
1 4 0 168 0 1 0 0 0 1 0 0 0 1 3003.dat
1 4 40 168 0 1 0 0 0 1 0 0 0 1 3003.dat
1 4 80 168 0 1 0 0 0 1 0 0 0 1 3003.dat
1 4 120 168 0 1 0 0 0 1 0 0 0 1 3003.dat
1 4 160 168 0 1 0 0 0 1 0 0 0 1 3003.dat
1 4 0 168 40 1 0 0 0 1 0 0 0 1 3003.dat
1 4 40 168 40 1 0 0 0 1 0 0 0 1 3003.dat
1 4 80 168 40 1 0 0 0 1 0 0 0 1 3003.dat
1 4 120 168 40 1 0 0 0 1 0 0 0 1 3003.dat
1 4 160 168 40 1 0 0 0 1 0 0 0 1 3003.dat
1 4 0 168 80 1 0 0 0 1 0 0 0 1 3003.dat
1 4 40 168 80 1 0 0 0 1 0 0 0 1 3003.dat
1 4 80 168 80 1 0 0 0 1 0 0 0 1 3003.dat
1 4 120 168 80 1 0 0 0 1 0 0 0 1 3003.dat
1 4 160 168 80 1 0 0 0 1 0 0 0 1 3003.dat
1 4 0 168 120 1 0 0 0 1 0 0 0 1 3003.dat
1 4 40 168 120 1 0 0 0 1 0 0 0 1 3003.dat
1 4 80 168 120 1 0 0 0 1 0 0 0 1 3003.dat
1 4 120 168 120 1 0 0 0 1 0 0 0 1 3003.dat
1 4 160 168 120 1 0 0 0 1 0 0 0 1 3003.dat
1 4 0 168 160 1 0 0 0 1 0 0 0 1 3003.dat
1 4 40 168 160 1 0 0 0 1 0 0 0 1 3003.dat
1 4 80 168 160 1 0 0 0 1 0 0 0 1 3003.dat
1 4 120 168 160 1 0 0 0 1 0 0 0 1 3003.dat
1 4 160 168 160 1 0 0 0 1 0 0 0 1 3003.dat
1 4 0 192 0 1 0 0 0 1 0 0 0 1 3003.dat
1 4 40 192 0 1 0 0 0 1 0 0 0 1 3003.dat
1 4 80 192 0 1 0 0 0 1 0 0 0 1 3003.dat
1 4 120 192 0 1 0 0 0 1 0 0 0 1 3003.dat
1 4 160 192 0 1 0 0 0 1 0 0 0 1 3003.dat
1 4 0 192 40 1 0 0 0 1 0 0 0 1 3003.dat
1 4 40 192 40 1 0 0 0 1 0 0 0 1 3003.dat
1 4 80 192 40 1 0 0 0 1 0 0 0 1 3003.dat
1 4 120 192 40 1 0 0 0 1 0 0 0 1 3003.dat
1 4 160 192 40 1 0 0 0 1 0 0 0 1 3003.dat
1 4 0 192 80 1 0 0 0 1 0 0 0 1 3003.dat
1 4 40 192 80 1 0 0 0 1 0 0 0 1 3003.dat
1 4 80 192 80 1 0 0 0 1 0 0 0 1 3003.dat
1 4 120 192 80 1 0 0 0 1 0 0 0 1 3003.dat
1 4 160 192 80 1 0 0 0 1 0 0 0 1 3003.dat
1 4 0 192 120 1 0 0 0 1 0 0 0 1 3003.dat
1 4 40 192 120 1 0 0 0 1 0 0 0 1 3003.dat
1 4 80 192 120 1 0 0 0 1 0 0 0 1 3003.dat
1 4 120 192 120 1 0 0 0 1 0 0 0 1 3003.dat
1 4 160 192 120 1 0 0 0 1 0 0 0 1 3003.dat
1 4 0 192 160 1 0 0 0 1 0 0 0 1 3003.dat
1 4 40 192 160 1 0 0 0 1 0 0 0 1 3003.dat
1 4 80 192 160 1 0 0 0 1 0 0 0 1 3003.dat
1 4 120 192 160 1 0 0 0 1 0 0 0 1 3003.dat
1 4 160 192 160 1 0 0 0 1 0 0 0 1 3003.dat
1 4 0 216 0 1 0 0 0 1 0 0 0 1 3003.dat
1 4 40 216 0 1 0 0 0 1 0 0 0 1 3003.dat
1 4 80 216 0 1 0 0 0 1 0 0 0 1 3003.dat
1 4 120 216 0 1 0 0 0 1 0 0 0 1 3003.dat
1 4 160 216 0 1 0 0 0 1 0 0 0 1 3003.dat
1 4 0 216 40 1 0 0 0 1 0 0 0 1 3003.dat
1 4 40 216 40 1 0 0 0 1 0 0 0 1 3003.dat
1 4 80 216 40 1 0 0 0 1 0 0 0 1 3003.dat
1 4 120 216 40 1 0 0 0 1 0 0 0 1 3003.dat
1 4 160 216 40 1 0 0 0 1 0 0 0 1 3003.dat
1 4 0 216 80 1 0 0 0 1 0 0 0 1 3003.dat
1 4 40 216 80 1 0 0 0 1 0 0 0 1 3003.dat
1 4 80 216 80 1 0 0 0 1 0 0 0 1 3003.dat
1 4 120 216 80 1 0 0 0 1 0 0 0 1 3003.dat
1 4 160 216 80 1 0 0 0 1 0 0 0 1 3003.dat
1 4 0 216 120 1 0 0 0 1 0 0 0 1 3003.dat
1 4 40 216 120 1 0 0 0 1 0 0 0 1 3003.dat
1 4 80 216 120 1 0 0 0 1 0 0 0 1 3003.dat
1 4 120 216 120 1 0 0 0 1 0 0 0 1 3003.dat
1 4 160 216 120 1 0 0 0 1 0 0 0 1 3003.dat
1 4 0 216 160 1 0 0 0 1 0 0 0 1 3003.dat
1 4 40 216 160 1 0 0 0 1 0 0 0 1 3003.dat
1 4 80 216 160 1 0 0 0 1 0 0 0 1 3003.dat
1 4 120 216 160 1 0 0 0 1 0 0 0 1 3003.dat
1 4 160 216 160 1 0 0 0 1 0 0 0 1 3003.dat
0 NOFILE
