0 LEGO Cube generated by Python
0 Size: 6 x 6 x 6
0 !LDRAW_ORG Model
1 4 0 0 0 1 0 0 0 1 0 0 0 1 3003.dat
1 4 40 0 0 1 0 0 0 1 0 0 0 1 3003.dat
1 4 80 0 0 1 0 0 0 1 0 0 0 1 3003.dat
1 4 0 0 40 1 0 0 0 1 0 0 0 1 3003.dat
1 4 40 0 40 1 0 0 0 1 0 0 0 1 3003.dat
1 4 80 0 40 1 0 0 0 1 0 0 0 1 3003.dat
1 4 0 0 80 1 0 0 0 1 0 0 0 1 3003.dat
1 4 40 0 80 1 0 0 0 1 0 0 0 1 3003.dat
1 4 80 0 80 1 0 0 0 1 0 0 0 1 3003.dat
1 4 0 24 0 1 0 0 0 1 0 0 0 1 3003.dat
1 4 40 24 0 1 0 0 0 1 0 0 0 1 3003.dat
1 4 80 24 0 1 0 0 0 1 0 0 0 1 3003.dat
1 4 0 24 40 1 0 0 0 1 0 0 0 1 3003.dat
1 4 40 24 40 1 0 0 0 1 0 0 0 1 3003.dat
1 4 80 24 40 1 0 0 0 1 0 0 0 1 3003.dat
1 4 0 24 80 1 0 0 0 1 0 0 0 1 3003.dat
1 4 40 24 80 1 0 0 0 1 0 0 0 1 3003.dat
1 4 80 24 80 1 0 0 0 1 0 0 0 1 3003.dat
1 4 0 48 0 1 0 0 0 1 0 0 0 1 3003.dat
1 4 40 48 0 1 0 0 0 1 0 0 0 1 3003.dat
1 4 80 48 0 1 0 0 0 1 0 0 0 1 3003.dat
1 4 0 48 40 1 0 0 0 1 0 0 0 1 3003.dat
1 4 40 48 40 1 0 0 0 1 0 0 0 1 3003.dat
1 4 80 48 40 1 0 0 0 1 0 0 0 1 3003.dat
1 4 0 48 80 1 0 0 0 1 0 0 0 1 3003.dat
1 4 40 48 80 1 0 0 0 1 0 0 0 1 3003.dat
1 4 80 48 80 1 0 0 0 1 0 0 0 1 3003.dat
1 4 0 72 0 1 0 0 0 1 0 0 0 1 3003.dat
1 4 40 72 0 1 0 0 0 1 0 0 0 1 3003.dat
1 4 80 72 0 1 0 0 0 1 0 0 0 1 3003.dat
1 4 0 72 40 1 0 0 0 1 0 0 0 1 3003.dat
1 4 40 72 40 1 0 0 0 1 0 0 0 1 3003.dat
1 4 80 72 40 1 0 0 0 1 0 0 0 1 3003.dat
1 4 0 72 80 1 0 0 0 1 0 0 0 1 3003.dat
1 4 40 72 80 1 0 0 0 1 0 0 0 1 3003.dat
1 4 80 72 80 1 0 0 0 1 0 0 0 1 3003.dat
1 4 0 96 0 1 0 0 0 1 0 0 0 1 3003.dat
1 4 40 96 0 1 0 0 0 1 0 0 0 1 3003.dat
1 4 80 96 0 1 0 0 0 1 0 0 0 1 3003.dat
1 4 0 96 40 1 0 0 0 1 0 0 0 1 3003.dat
1 4 40 96 40 1 0 0 0 1 0 0 0 1 3003.dat
1 4 80 96 40 1 0 0 0 1 0 0 0 1 3003.dat
1 4 0 96 80 1 0 0 0 1 0 0 0 1 3003.dat
1 4 40 96 80 1 0 0 0 1 0 0 0 1 3003.dat
1 4 80 96 80 1 0 0 0 1 0 0 0 1 3003.dat
1 4 0 120 0 1 0 0 0 1 0 0 0 1 3003.dat
1 4 40 120 0 1 0 0 0 1 0 0 0 1 3003.dat
1 4 80 120 0 1 0 0 0 1 0 0 0 1 3003.dat
1 4 0 120 40 1 0 0 0 1 0 0 0 1 3003.dat
1 4 40 120 40 1 0 0 0 1 0 0 0 1 3003.dat
1 4 80 120 40 1 0 0 0 1 0 0 0 1 3003.dat
1 4 0 120 80 1 0 0 0 1 0 0 0 1 3003.dat
1 4 40 120 80 1 0 0 0 1 0 0 0 1 3003.dat
1 4 80 120 80 1 0 0 0 1 0 0 0 1 3003.dat
0 NOFILE
