0 LEGO model generated by Python
0 Size: 4 x 2 x 4
0 !LDRAW_ORG Model
1 4 0 0 0 1 0 0 0 1 0 0 0 1 3004.dat
1 4 20 0 0 1 0 0 0 1 0 0 0 1 3004.dat
1 4 40 0 0 1 0 0 0 1 0 0 0 1 3004.dat
1 4 60 0 0 1 0 0 0 1 0 0 0 1 3004.dat
1 4 0 0 40 1 0 0 0 1 0 0 0 1 3004.dat
1 4 20 0 40 1 0 0 0 1 0 0 0 1 3004.dat
1 4 40 0 40 1 0 0 0 1 0 0 0 1 3004.dat
1 4 60 0 40 1 0 0 0 1 0 0 0 1 3004.dat
1 4 0 24 0 1 0 0 0 1 0 0 0 1 3004.dat
1 4 20 24 0 1 0 0 0 1 0 0 0 1 3004.dat
1 4 40 24 0 1 0 0 0 1 0 0 0 1 3004.dat
1 4 60 24 0 1 0 0 0 1 0 0 0 1 3004.dat
1 4 0 24 40 1 0 0 0 1 0 0 0 1 3004.dat
1 4 20 24 40 1 0 0 0 1 0 0 0 1 3004.dat
1 4 40 24 40 1 0 0 0 1 0 0 0 1 3004.dat
1 4 60 24 40 1 0 0 0 1 0 0 0 1 3004.dat
0 NOFILE
