0 LEGO model generated by Python
0 Size: 4 x 2 x 4
0 !LDRAW_ORG Model
1 4 20.0 0 10.0 1 0 0 0 1 0 0 0 1 3004.dat
1 4 60.0 0 10.0 1 0 0 0 1 0 0 0 1 3004.dat
1 4 20.0 0 30.0 1 0 0 0 1 0 0 0 1 3004.dat
1 4 60.0 0 30.0 1 0 0 0 1 0 0 0 1 3004.dat
1 4 20.0 0 50.0 1 0 0 0 1 0 0 0 1 3004.dat
1 4 60.0 0 50.0 1 0 0 0 1 0 0 0 1 3004.dat
1 4 20.0 0 70.0 1 0 0 0 1 0 0 0 1 3004.dat
1 4 60.0 0 70.0 1 0 0 0 1 0 0 0 1 3004.dat
1 4 20.0 -24 10.0 1 0 0 0 1 0 0 0 1 3004.dat
1 4 60.0 -24 10.0 1 0 0 0 1 0 0 0 1 3004.dat
1 4 20.0 -24 30.0 1 0 0 0 1 0 0 0 1 3004.dat
1 4 60.0 -24 30.0 1 0 0 0 1 0 0 0 1 3004.dat
1 4 20.0 -24 50.0 1 0 0 0 1 0 0 0 1 3004.dat
1 4 60.0 -24 50.0 1 0 0 0 1 0 0 0 1 3004.dat
1 4 20.0 -24 70.0 1 0 0 0 1 0 0 0 1 3004.dat
1 4 60.0 -24 70.0 1 0 0 0 1 0 0 0 1 3004.dat
0 NOFILE
